<svg width="13" height="16" viewBox="0 0 13 16" fill="none" xmlns="http://www.w3.org/2000/svg">
<path d="M6.4636 15.1989C5.403 15.1989 4.45839 15.0166 3.62979 14.652C2.80593 14.2827 2.15489 13.776 1.67667 13.1321C1.20318 12.4834 0.95934 11.7353 0.945135 10.8878L4.04173 10.8878C4.06067 11.2429 4.17667 11.5554 4.38974 11.8253C4.60754 12.0904 4.89637 12.2964 5.25621 12.4432C5.61606 12.59 6.02089 12.6634 6.4707 12.6634C6.93945 12.6634 7.35375 12.5805 7.7136 12.4148C8.07345 12.2491 8.35517 12.0194 8.55877 11.7259C8.76237 11.4323 8.86417 11.0937 8.86417 10.7102C8.86417 10.322 8.75527 9.97869 8.53746 9.6804C8.3244 9.37737 8.01663 9.14062 7.61417 8.97017C7.21644 8.79972 6.74296 8.71449 6.19371 8.71449L4.83718 8.71449L4.83718 6.45597L6.19371 6.45597C6.65773 6.45597 7.06729 6.37547 7.42241 6.21449C7.78226 6.0535 8.06161 5.83097 8.26048 5.54687C8.45934 5.25805 8.55877 4.92187 8.55877 4.53835C8.55877 4.17377 8.47118 3.85417 8.29599 3.57955C8.12553 3.30019 7.88406 3.08239 7.57156 2.92614C7.26379 2.76989 6.90394 2.69176 6.49201 2.69176C6.07534 2.69176 5.69419 2.76752 5.34854 2.91903C5.0029 3.06581 4.72591 3.27651 4.51758 3.55114C4.30924 3.82576 4.19798 4.14773 4.18377 4.51705L1.23633 4.51705C1.25053 3.67898 1.48964 2.94034 1.95366 2.30114C2.41767 1.66193 3.04267 1.1624 3.82866 0.802556C4.61938 0.437973 5.5119 0.255681 6.50621 0.255681C7.51 0.255681 8.38832 0.437973 9.14116 0.802556C9.894 1.16714 10.4788 1.65956 10.8954 2.27983C11.3168 2.89536 11.5252 3.58665 11.5204 4.35369C11.5252 5.16809 11.2718 5.84754 10.7605 6.39205C10.2538 6.93655 9.59334 7.2822 8.77894 7.42898L8.77894 7.54261C9.84902 7.67992 10.6634 8.05161 11.2221 8.65767C11.7856 9.259 12.0649 10.0118 12.0602 10.9162C12.0649 11.7448 11.8258 12.4811 11.3429 13.125C10.8646 13.7689 10.2041 14.2756 9.36133 14.6449C8.51853 15.0142 7.55262 15.1989 6.4636 15.1989Z" fill="#00B9B6"/>
</svg>
