<svg width="11" height="16" viewBox="0 0 11 16" fill="none" xmlns="http://www.w3.org/2000/svg">
<path d="M0.380149 15.5L0.380149 13.2841L5.55771 8.49006C5.99805 8.06392 6.36737 7.6804 6.66566 7.33949C6.96869 6.99858 7.19833 6.66477 7.35458 6.33807C7.51083 6.00663 7.58896 5.64915 7.58896 5.26562C7.58896 4.83949 7.49189 4.47254 7.29776 4.16477C7.10363 3.85227 6.83848 3.61316 6.50231 3.44744C6.16613 3.27699 5.78498 3.19176 5.35884 3.19176C4.91377 3.19176 4.52551 3.28172 4.19407 3.46165C3.86263 3.64157 3.60695 3.89962 3.42702 4.2358C3.2471 4.57197 3.15714 4.97206 3.15714 5.43608L0.238104 5.43608C0.238104 4.48437 0.453539 3.65814 0.884411 2.95739C1.31528 2.25663 1.91898 1.71449 2.69549 1.33097C3.47201 0.947443 4.36689 0.755681 5.38015 0.755681C6.42182 0.755681 7.32854 0.94034 8.10032 1.30966C8.87684 1.67424 9.48053 2.18087 9.9114 2.82955C10.3423 3.47822 10.5577 4.22159 10.5577 5.05966C10.5577 5.6089 10.4488 6.15104 10.231 6.68608C10.0179 7.22112 9.63678 7.81534 9.08754 8.46875C8.53829 9.11742 7.76415 9.89631 6.76509 10.8054L4.64151 12.8864L4.64151 12.9858L10.7495 12.9858L10.7495 15.5L0.380149 15.5Z" fill="white"/>
</svg>
